#!OML:ASF Y:\EmotionMaleHayes\Project 1\Capture day 1\Session 1\Male1.ASF
:FULLY-SPECIFIED
:DEGREES
767
root 0.696476 17.2449 -12.9182 188.784 139.36 187.75
lowerback 11.9472 1.57293 -11.3791
upperback 6.65794 1.08097 -2.81948
thorax 0.249215 0.37028 3.29111
lowerneck -21.6051 -0.631546 0.912784
upperneck 33.0536 -1.60757 1.7222
head 15.1971 -0.202685 0.284944
rclavicle -1.27222e-014 3.57812e-014
rhumerus -43.3068 1.91671 -81.28
rradius 32.3929
rwrist 10.1262
rhand -8.94338 -27.9119
rfingers 7.12502
rthumb 17.0009 -57.188
lclavicle -1.27222e-014 3.57812e-014
lhumerus -19.822 -5.37434 61.1276
lradius 63.4922
lwrist 3.34962
lhand -31.9945 -25.621
lfingers 7.12502
lthumb -5.24339 4.29415
rfemur -20.5368 -5.58684 9.45795
rtibia 36.5472
rfoot -18.5749 0.108492
rtoes 3.9454
lfemur -0.726625 5.97556 -19.1402
ltibia 13.0969
lfoot -16.9349 17.3255
ltoes -2.86357
768
root 0.741995 17.2486 -12.8183 188.97 139.428 187.817
lowerback 11.8863 1.54299 -11.4939
upperback 6.70152 1.04415 -2.80377
thorax 0.334726 0.34342 3.37644
lowerneck -21.5843 -0.59133 0.786983
upperneck 32.9596 -1.57393 1.92549
head 15.1523 -0.177217 0.397449
rclavicle -4.17448e-014 -3.4191e-014
rhumerus -43.6762 1.14595 -80.7101
rradius 31.7251
rwrist 10.3014
rhand -8.95719 -27.692
rfingers 7.12502
rthumb 16.9876 -56.9692
lclavicle -4.17448e-014 -3.4191e-014
lhumerus -18.7838 -5.73938 60.7015
lradius 64.5906
lwrist 3.52672
lhand -32.0428 -25.8269
lfingers 7.12502
lthumb -5.29002 4.08709
rfemur -21.3014 -5.40655 9.09559
rtibia 34.9667
rfoot -18.3801 -0.036537
rtoes 4.37154
lfemur -0.0474902 5.83744 -19.0647
ltibia 12.2695
lfoot -17.1536 17.3164
ltoes -1.89016
769
root 0.796314 17.2507 -12.7126 189.29 139.45 188.097
lowerback 11.7874 1.53782 -11.6096
upperback 6.73626 1.04574 -2.90296
thorax 0.428131 0.338444 3.33698
lowerneck -21.6536 -0.625779 0.794951
upperneck 32.9807 -1.67923 2.05794
head 15.1812 -0.20018 0.431715
rclavicle 3.81667e-014 3.18055e-014
rhumerus -44.108 0.21916 -80.1933
rradius 30.9757
rwrist 10.659
rhand -9.06922 -27.6214
rfingers 7.12502
rthumb 16.8798 -56.9078
lclavicle 3.81667e-014 3.18055e-014
lhumerus -17.6482 -6.3859 60.2377
lradius 65.5719
lwrist 3.81473
lhand -32.1187 -26.2348
lfingers 7.12502
lthumb -5.3633 3.67735
rfemur -21.8198 -5.22523 8.45443
rtibia 33.2389
rfoot -18.1588 0.0162089
rtoes 7.47122
lfemur 0.673493 5.78895 -19.192
ltibia 11.4179
lfoot -17.097 17.2357
ltoes -1.38912
770
root 0.847645 17.2509 -12.6079 189.708 139.267 188.422
lowerback 11.6935 1.41564 -11.7578
upperback 6.74874 0.888108 -2.94562
thorax 0.517245 0.252965 3.39325
lowerneck -21.8662 -0.563784 0.925679
upperneck 33.1488 -1.59051 1.90493
head 15.3045 -0.165129 0.363112
rclavicle 2.0276e-014 5.56597e-015
rhumerus -44.5982 -0.543584 -79.6528
rradius 30.4695
rwrist 11.2225
rhand -9.18807 -27.9992
rfingers 7.12502
rthumb 16.7654 -57.2953
lclavicle 2.0276e-014 5.56597e-015
lhumerus -16.6183 -6.90045 59.8085
lradius 66.5324
lwrist 4.08436
lhand -32.2389 -26.5791
lfingers 7.12502
lthumb -5.47935 3.3301
rfemur -22.3095 -5.63576 7.84331
rtibia 31.4994
rfoot -17.4718 0.0121859
rtoes 8.6625
lfemur 1.20564 5.57376 -19.3691
ltibia 10.6975
lfoot -17.1707 17.0375
ltoes -0.718942
771
root 0.888926 17.2465 -12.5037 190.106 139.002 188.699
lowerback 11.6954 1.26331 -12.0083
upperback 6.69959 0.659026 -2.86184
thorax 0.499388 0.133058 3.6457
lowerneck -21.7792 -0.499344 0.884232
upperneck 33.1359 -1.42123 1.75661
head 15.275 -0.122555 0.340156
rclavicle 1.80894e-014 -5.64548e-014
rhumerus -45.158 -1.11498 -78.972
rradius 30.1455
rwrist 11.8004
rhand -8.73833 -28.7114
rfingers 7.12502
rthumb 17.1983 -57.9703
lclavicle 1.80894e-014 -5.64548e-014
lhumerus -15.8774 -7.20494 59.5889
lradius 67.5037
lwrist 4.18366
lhand -32.3201 -26.7065
lfingers 7.12502
lthumb -5.5578 3.20064
rfemur -22.8916 -6.21408 7.4152
rtibia 29.8553
rfoot -16.3086 -0.477045
rtoes 6.1951
lfemur 1.59496 5.48295 -19.4218
ltibia 10.2236
lfoot -17.1414 16.8304
ltoes -1.15364
772
root 0.931393 17.2398 -12.3947 190.387 138.789 188.808
lowerback 11.6537 1.1727 -12.0854
upperback 6.66308 0.53504 -2.79162
thorax 0.502152 0.0686551 3.77674
lowerneck -21.594 -0.495817 0.780437
upperneck 32.9354 -1.39263 1.81746
head 15.1398 -0.119298 0.387273
rclavicle -5.80451e-014 4.29375e-014
rhumerus -45.6126 -1.96553 -78.1998
rradius 29.7158
rwrist 11.8908
rhand -7.9424 -29.641
rfingers 7.12502
rthumb 17.9643 -58.8313
lclavicle -5.80451e-014 4.29375e-014
lhumerus -14.9495 -7.69589 59.3313
lradius 68.3318
lwrist 4.41239
lhand -32.2889 -26.8475
lfingers 7.12502
lthumb -5.52771 3.06039
rfemur -23.4226 -6.6108 7.12684
rtibia 28.1728
rfoot -15.1237 -1.17355
rtoes 4.96503
lfemur 2.00906 5.4983 -19.2683
ltibia 9.79163
lfoot -16.9932 16.6773
ltoes -2.34295
773
root 0.98578 17.233 -12.2818 190.577 138.674 188.802
lowerback 11.4902 1.10799 -11.9465
upperback 6.68464 0.490089 -2.76477
thorax 0.618359 0.0423734 3.73482
lowerneck -21.6696 -0.492691 0.716311
upperneck 32.8477 -1.38737 1.87559
head 15.1172 -0.118317 0.422742
rclavicle 4.49253e-014 2.14687e-014
rhumerus -45.9766 -2.85378 -77.4304
rradius 29.3204
rwrist 11.1899
rhand -7.89557 -29.719
rfingers 7.12502
rthumb 18.0093 -58.9052
lclavicle 4.49253e-014 2.14687e-014
lhumerus -13.816 -8.18596 58.9641
lradius 69.0419
lwrist 4.66162
lhand -32.1473 -27.0974
lfingers 7.12502
lthumb -5.39095 2.81398
rfemur -23.8374 -6.99291 6.86642
rtibia 26.6174
rfoot -14.0494 -1.16369
rtoes 7.57462
lfemur 2.54174 5.38025 -19.0822
ltibia 9.22543
lfoot -17.0425 16.7874
ltoes -3.28304
774
root 1.04454 17.2199 -12.1661 190.495 138.528 188.623
lowerback 11.4369 1.03181 -11.6934
upperback 6.72762 0.425328 -2.65613
thorax 0.698008 0.00875646 3.71747
lowerneck -21.7382 -0.501329 0.614896
upperneck 32.842 -1.34874 1.83791
head 15.1297 -0.120729 0.431761
rclavicle 8.07066e-014 -1.98785e-014
rhumerus -46.5102 -3.38727 -76.7455
rradius 29.0713
rwrist 11.1991
rhand -8.10059 -29.3398
rfingers 7.12502
rthumb 17.8121 -58.544
lclavicle 8.07066e-014 -1.98785e-014
lhumerus -12.9561 -8.54769 58.737
lradius 69.8227
lwrist 4.7816
lhand -32.1129 -27.5533
lfingers 7.12502
lthumb -5.35776 2.35898
rfemur -24.0394 -7.29522 6.78827
rtibia 25.1419
rfoot -13.1962 -0.992008
rtoes 9.62547
lfemur 3.24311 5.17726 -18.7156
ltibia 8.6915
lfoot -17.1865 16.9168
ltoes -3.95825
775
root 1.09746 17.1991 -12.0509 190.596 138.205 188.685
lowerback 11.4533 0.909404 -11.685
upperback 6.72477 0.262425 -2.49687
thorax 0.709936 -0.076316 3.89848
lowerneck -21.5122 -0.523494 0.307425
upperneck 32.6172 -1.30365 1.96945
head 14.9767 -0.126043 0.546076
rclavicle -4.57205e-014 3.02153e-014
rhumerus -47.063 -3.79114 -75.9981
rradius 28.7359
rwrist 11.9156
rhand -7.89384 -29.3319
rfingers 7.12502
rthumb 18.011 -58.518
lclavicle -4.57205e-014 3.02153e-014
lhumerus -12.2749 -8.94016 58.7288
lradius 70.514
lwrist 4.91335
lhand -32.1733 -28.1417
lfingers 7.12502
lthumb -5.41602 1.7691
rfemur -24.2651 -7.88518 6.57637
rtibia 23.9556
rfoot -12.8875 -1.43946
rtoes 8.90794
lfemur 3.85208 4.81972 -18.5441
ltibia 8.1882
lfoot -17.2591 16.8417
ltoes -4.23002
776
root 1.15234 17.1871 -11.9341 190.781 137.966 189.015
lowerback 11.5345 0.827131 -11.8164
upperback 6.77231 0.137195 -2.44532
thorax 0.739529 -0.1454 4.03858
lowerneck -22.1663 -0.422874 0.703745
upperneck 33.1927 -1.10306 1.36405
head 15.3836 -0.0698717 0.267237
rclavicle -5.50634e-014 -3.06128e-014
rhumerus -47.4379 -4.44457 -75.1552
rradius 28.3891
rwrist 12.1424
rhand -7.57267 -29.24
rfingers 7.12502
rthumb 18.32 -58.3973
lclavicle -5.50634e-014 -3.06128e-014
lhumerus -11.5249 -9.24876 58.7369
lradius 71.125
lwrist 5.01049
lhand -31.8139 -28.4413
lfingers 7.12502
lthumb -5.06903 1.47808
rfemur -24.3769 -8.48159 6.13619
rtibia 23.0801
rfoot -12.7025 -2.15152
rtoes 8.79805
lfemur 4.61834 4.35352 -18.7158
ltibia 7.58835
lfoot -17.3423 17.0158
ltoes -5.14111
777
root 1.20661 17.1721 -11.8159 191.21 137.833 189.512
lowerback 11.3732 0.735035 -11.8865
upperback 6.85588 0.0459268 -2.60296
thorax 0.93322 -0.200321 3.91985
lowerneck -21.3849 -0.403532 0.227267
upperneck 32.3178 -1.12499 2.05436
head 14.8092 -0.0536919 0.624991
rclavicle 6.06293e-014 -2.5842e-014
rhumerus -47.7611 -5.20125 -74.6263
rradius 28.2362
rwrist 12.0523
rhand -7.70597 -28.8971
rfingers 7.12502
rthumb 18.1917 -58.0664
lclavicle 6.06293e-014 -2.5842e-014
lhumerus -10.5792 -9.55837 58.4758
lradius 71.6708
lwrist 4.99478
lhand -31.3719 -28.7231
lfingers 7.12502
lthumb -4.64225 1.20608
rfemur -24.7315 -9.09581 5.59157
rtibia 22.4815
rfoot -12.178 -2.54603
rtoes 9.92259
lfemur 5.1079 3.99831 -19.0684
ltibia 7.28965
lfoot -17.4583 17.3293
ltoes -6.6333
